# xmcd
#
# Track frame offsets:
#	150
#	38362
#	59902
#	82082
#	108882
#	150927
#	172530
#	203747
#	231000
#	268187
#	282477
#	298607
#
# Disc length: 4173 seconds
#
# Revision: 2
# Processed by: cddbd v1.5.1PL2 Copyright (c) Steve Scherf et al.
# Submitted via: freedbtool 1.11
#
DISCID=9e104b0c
DTITLE=Stevie Ray Vaughan - Soul Love
DYEAR=1900
DGENRE=
TTITLE0=Soul to Soul
TTITLE1=A love so fine
TTITLE2=Lil Lil sister
TTITLE3=Mary had a little lamb
TTITLE4=Givin up on Love
TTITLE5=Superstitious
TTITLE6=Willy The wimp
TTITLE7=Cold Shot
TTITLE8=Couldn't stand the weather
TTITLE9=Instumental Jam (MTV)
TTITLE10=Pride and Joy (MTV)
TTITLE11=Scuttlebuttin (MTV)
EXTD=
EXTT0=
EXTT1=
EXTT2=
EXTT3=
EXTT4=
EXTT5=
EXTT6=
EXTT7=
EXTT8=
EXTT9=
EXTT10=
EXTT11=
PLAYORDER=
